<?xml version="1.0" encoding="UTF-8" standalone="no"?>
<!-- Created with Inkscape (http://www.inkscape.org/) -->

<svg
   version="1.1"
   id="svg1"
   width="394.82001"
   height="58.792"
   viewBox="0 0 394.82001 58.792001"
   sodipodi:docname="style3color.svg"
   xmlns:inkscape="http://www.inkscape.org/namespaces/inkscape"
   xmlns:sodipodi="http://sodipodi.sourceforge.net/DTD/sodipodi-0.dtd"
   xmlns="http://www.w3.org/2000/svg"
   xmlns:svg="http://www.w3.org/2000/svg">
  <defs
     id="defs1" />
  <sodipodi:namedview
     id="namedview1"
     pagecolor="#ffffff"
     bordercolor="#000000"
     borderopacity="0.25"
     inkscape:showpageshadow="2"
     inkscape:pageopacity="0.0"
     inkscape:pagecheckerboard="0"
     inkscape:deskcolor="#d1d1d1">
    <inkscape:page
       x="6.2439182e-07"
       y="2.0747106e-07"
       inkscape:label="1"
       id="page1"
       width="394.82001"
       height="58.792"
       margin="0"
       bleed="0" />
  </sodipodi:namedview>
  <g
     id="g1"
     inkscape:groupmode="layer"
     inkscape:label="1"
     transform="translate(-216.52133,-246.93734)">
    <g
       id="group-R5">
      <path
         id="path2"
         d="M 2362.55,2247.97 V 1807.03"
         style="fill:none;stroke:#656263;stroke-width:5;stroke-linecap:butt;stroke-linejoin:miter;stroke-miterlimit:10;stroke-dasharray:none;stroke-opacity:1"
         transform="matrix(0.13333333,0,0,-0.13333333,0,546.66667)" />
      <path
         id="path3"
         d="m 2520.44,2164.24 h 12.49 v -86.78 h -12.49 v 86.78"
         style="fill:#656263;fill-opacity:1;fill-rule:nonzero;stroke:none"
         transform="matrix(0.13333333,0,0,-0.13333333,0,546.66667)" />
      <path
         id="path4"
         d="m 2573.44,2149.01 c 0.37,-3.82 0.6,-18.56 0.6,-25.12 v -46.43 h -11.99 v 86.78 h 16.45 l 25.88,-48.9 c 1.87,-3.7 9.28,-17.82 10.65,-21.53 h 0.75 c -0.38,5.31 -0.38,22.03 -0.38,26.11 v 44.32 h 11.75 v -86.78 h -16.1 l -26.47,49.89 c -1.86,3.71 -8.81,17.46 -10.4,21.66 h -0.74"
         style="fill:#656263;fill-opacity:1;fill-rule:nonzero;stroke:none"
         transform="matrix(0.13333333,0,0,-0.13333333,0,546.66667)" />
      <path
         id="path5"
         d="m 2667.67,2088.22 h 11.02 c 18.69,0 26.51,10.04 26.51,32.44 0,24.53 -9.93,32.82 -27,32.82 h -10.53 z m -12.38,76.02 h 23.88 c 26.77,0 38.88,-13.48 38.88,-42.21 0,-26.49 -10.76,-44.57 -38.88,-44.57 h -23.88 v 86.78"
         style="fill:#656263;fill-opacity:1;fill-rule:nonzero;stroke:none"
         transform="matrix(0.13333333,0,0,-0.13333333,0,546.66667)" />
      <path
         id="path6"
         d="m 2754.23,2122.77 h 10.03 c 11.39,0 17.69,4.71 17.69,15.61 0,10.9 -6.4,15.1 -18.18,15.1 h -9.54 z m 11.28,41.47 c 18.31,0 29.22,-7.16 29.22,-24.77 0,-14.47 -8.93,-22.38 -19.18,-23.75 v -0.51 c 3.7,-1.72 6.79,-4.68 10.76,-11.62 l 15.2,-26.13 h -14.96 l -15.34,27.85 c -2.73,4.96 -6.21,7.07 -11.9,7.07 h -5.08 v -34.92 h -12.35 v 86.78 h 23.63"
         style="fill:#656263;fill-opacity:1;fill-rule:nonzero;stroke:none"
         transform="matrix(0.13333333,0,0,-0.13333333,0,546.66667)" />
      <path
         id="path7"
         d="m 2835.12,2112 h 26.48 l -7.42,24.14 c -1.49,5.32 -4.82,16.1 -5.57,19.45 h -0.5 c -0.61,-3.23 -3.97,-14.24 -5.33,-19.07 z m 22.65,52.24 27.74,-86.78 h -13.27 l -7.28,23.77 h -33.18 l -7.32,-23.77 h -12.75 l 27.49,86.78 h 18.57"
         style="fill:#656263;fill-opacity:1;fill-rule:nonzero;stroke:none"
         transform="matrix(0.13333333,0,0,-0.13333333,0,546.66667)" />
      <path
         id="path8"
         d="m 2915.86,2153.35 v -31.93 h 11.27 c 13.87,0 18.44,6.06 18.44,16.08 0,11.27 -6.19,15.85 -18.32,15.85 z m 42.59,-14.23 c 0,-16.97 -9.52,-28.36 -31.07,-28.36 h -11.52 v -33.3 h -12.36 v 86.78 h 26.22 c 17.35,0 28.73,-7.16 28.73,-25.12"
         style="fill:#656263;fill-opacity:1;fill-rule:nonzero;stroke:none"
         transform="matrix(0.13333333,0,0,-0.13333333,0,546.66667)" />
      <path
         id="path9"
         d="m 2992.15,2122.77 h 10.04 c 11.38,0 17.7,4.71 17.7,15.61 0,10.9 -6.45,15.1 -18.21,15.1 h -9.53 z m 11.26,41.47 c 18.34,0 29.22,-7.16 29.22,-24.77 0,-14.47 -8.92,-22.38 -19.19,-23.75 v -0.51 c 3.72,-1.72 6.81,-4.68 10.78,-11.62 l 15.21,-26.13 h -14.96 l -15.37,27.85 c -2.71,4.96 -6.21,7.07 -11.87,7.07 h -5.08 v -34.92 h -12.38 v 86.78 h 23.64"
         style="fill:#656263;fill-opacity:1;fill-rule:nonzero;stroke:none"
         transform="matrix(0.13333333,0,0,-0.13333333,0,546.66667)" />
      <path
         id="path10"
         d="m 3073.02,2112 h 26.49 l -7.41,24.14 c -1.49,5.32 -4.84,16.1 -5.57,19.45 h -0.5 c -0.61,-3.23 -3.97,-14.24 -5.34,-19.07 z m 22.65,52.24 27.75,-86.78 h -13.25 l -7.32,23.77 h -33.16 l -7.32,-23.77 h -12.74 l 27.47,86.78 h 18.57"
         style="fill:#656263;fill-opacity:1;fill-rule:nonzero;stroke:none"
         transform="matrix(0.13333333,0,0,-0.13333333,0,546.66667)" />
      <path
         id="path11"
         d="m 3179.13,2099.86 c 0,17.95 -40.84,14.24 -40.84,41.6 0,13.63 11.5,24.03 27.86,24.03 11.12,0 19.31,-4.21 23.51,-8.17 l -7.67,-9.54 c -3.71,3.23 -8.9,6.56 -16.72,6.56 -9.02,0 -14.35,-5.06 -14.35,-12.02 0,-18.19 40.98,-14.59 40.98,-41.7 0,-13 -10.51,-24.4 -30.08,-24.4 -14.25,0 -23.67,5.44 -28.13,9.54 l 7.32,10.27 c 4.58,-3.82 11.64,-8.78 22.16,-8.78 10.51,0 15.96,5.55 15.96,12.61"
         style="fill:#656263;fill-opacity:1;fill-rule:nonzero;stroke:none"
         transform="matrix(0.13333333,0,0,-0.13333333,0,546.66667)" />
      <path
         id="path12"
         d="m 3224.11,2153.48 h -22.78 v 10.76 h 57.95 v -10.76 h -22.67 v -76.02 h -12.5 v 76.02"
         style="fill:#656263;fill-opacity:1;fill-rule:nonzero;stroke:none"
         transform="matrix(0.13333333,0,0,-0.13333333,0,546.66667)" />
      <path
         id="path13"
         d="m 3341.12,2164.24 v -86.78 h -12.5 v 38.38 h -39 v -38.38 h -12.39 v 86.78 h 12.39 v -37.64 h 39 v 37.64 h 12.5"
         style="fill:#656263;fill-opacity:1;fill-rule:nonzero;stroke:none"
         transform="matrix(0.13333333,0,0,-0.13333333,0,546.66667)" />
      <path
         id="path14"
         d="m 3382.62,2112 h 26.5 l -7.43,24.14 c -1.49,5.32 -4.81,16.1 -5.56,19.45 h -0.5 c -0.6,-3.23 -3.97,-14.24 -5.33,-19.07 z m 22.66,52.24 27.75,-86.78 h -13.24 l -7.33,23.77 h -33.18 l -7.3,-23.77 h -12.74 l 27.48,86.78 h 18.56"
         style="fill:#656263;fill-opacity:1;fill-rule:nonzero;stroke:none"
         transform="matrix(0.13333333,0,0,-0.13333333,0,546.66667)" />
      <path
         id="path15"
         d="m 3490.13,2164.24 h 12.5 v -86.78 h -12.5 v 86.78"
         style="fill:#656263;fill-opacity:1;fill-rule:nonzero;stroke:none"
         transform="matrix(0.13333333,0,0,-0.13333333,0,546.66667)" />
      <path
         id="path16"
         d="m 3543.13,2149.01 c 0.37,-3.82 0.61,-18.56 0.61,-25.12 v -46.43 h -11.99 v 86.78 h 16.45 l 25.88,-48.9 c 1.86,-3.7 9.28,-17.82 10.65,-21.53 h 0.74 c -0.38,5.31 -0.38,22.03 -0.38,26.11 v 44.32 h 11.77 v -86.78 h -16.11 l -26.48,49.89 c -1.86,3.71 -8.78,17.46 -10.4,21.66 h -0.74"
         style="fill:#656263;fill-opacity:1;fill-rule:nonzero;stroke:none"
         transform="matrix(0.13333333,0,0,-0.13333333,0,546.66667)" />
      <path
         id="path17"
         d="m 3662.76,2099.86 c 0,17.95 -40.87,14.24 -40.87,41.6 0,13.63 11.53,24.03 27.86,24.03 11.14,0 19.32,-4.21 23.53,-8.17 l -7.67,-9.54 c -3.73,3.23 -8.93,6.56 -16.7,6.56 -9.05,0 -14.4,-5.06 -14.4,-12.02 0,-18.19 40.98,-14.59 40.98,-41.7 0,-13 -10.51,-24.4 -30.08,-24.4 -14.24,0 -23.61,5.44 -28.11,9.54 l 7.32,10.27 c 4.58,-3.82 11.64,-8.78 22.17,-8.78 10.52,0 15.97,5.55 15.97,12.61"
         style="fill:#656263;fill-opacity:1;fill-rule:nonzero;stroke:none"
         transform="matrix(0.13333333,0,0,-0.13333333,0,546.66667)" />
      <path
         id="path18"
         d="m 3707.72,2153.48 h -22.78 v 10.76 h 57.93 v -10.76 h -22.66 v -76.02 h -12.49 v 76.02"
         style="fill:#656263;fill-opacity:1;fill-rule:nonzero;stroke:none"
         transform="matrix(0.13333333,0,0,-0.13333333,0,546.66667)" />
      <path
         id="path19"
         d="m 3761.94,2164.24 h 12.51 v -86.78 h -12.51 v 86.78"
         style="fill:#656263;fill-opacity:1;fill-rule:nonzero;stroke:none"
         transform="matrix(0.13333333,0,0,-0.13333333,0,546.66667)" />
      <path
         id="path20"
         d="m 3816.2,2153.48 h -22.78 v 10.76 h 57.93 v -10.76 h -22.64 v -76.02 h -12.51 v 76.02"
         style="fill:#656263;fill-opacity:1;fill-rule:nonzero;stroke:none"
         transform="matrix(0.13333333,0,0,-0.13333333,0,546.66667)" />
      <path
         id="path21"
         d="m 3919.59,2107.17 v 57.07 h 12.52 v -55.45 c 0,-22.42 -13.24,-32.57 -32.69,-32.57 -20.31,0 -30.46,11.89 -30.46,30.33 v 57.69 h 12.39 v -55.59 c 0,-14.6 7.18,-21.52 19.69,-21.52 11.5,0 18.55,5.57 18.55,20.04"
         style="fill:#656263;fill-opacity:1;fill-rule:nonzero;stroke:none"
         transform="matrix(0.13333333,0,0,-0.13333333,0,546.66667)" />
      <path
         id="path22"
         d="m 3972.49,2153.48 h -22.76 v 10.76 h 57.92 v -10.76 h -22.66 v -76.02 h -12.5 v 76.02"
         style="fill:#656263;fill-opacity:1;fill-rule:nonzero;stroke:none"
         transform="matrix(0.13333333,0,0,-0.13333333,0,546.66667)" />
      <path
         id="path23"
         d="m 4025.63,2077.46 v 86.78 h 47.53 v -10.76 H 4038 v -26.62 h 30.71 v -10.78 H 4038 v -27.86 h 36.78 v -10.76 h -49.15"
         style="fill:#656263;fill-opacity:1;fill-rule:nonzero;stroke:none"
         transform="matrix(0.13333333,0,0,-0.13333333,0,546.66667)" />
      <path
         id="path24"
         d="m 4157.13,2086.12 c 16.61,0 20.08,20.93 20.08,34.3 0,11.4 -5.46,16.34 -14.5,16.34 -16.47,0 -19.82,-20.8 -19.82,-34.16 0,-11.27 5.21,-16.48 14.24,-16.48 z m -0.49,-10.03 c -17.95,0 -26.36,10.28 -26.36,26.62 0,24.27 9.66,44.08 33.05,44.08 18.08,0 26.37,-9.9 26.37,-26.5 0,-24.14 -9.66,-44.2 -33.06,-44.2"
         style="fill:#656263;fill-opacity:1;fill-rule:nonzero;stroke:none"
         transform="matrix(0.13333333,0,0,-0.13333333,0,546.66667)" />
      <path
         id="path25"
         d="m 4247.05,2145.55 -1.49,-10.39 h -17.34 l -11.39,-82.85 h -11.87 l 11.5,82.85 h -11.38 l 1.24,8.3 11.65,2.09 1.22,9.04 c 1.73,13 11.13,19.43 24.27,19.43 8.29,0 14.11,-1.73 16.82,-3.07 l -4.07,-9.92 c -2.99,1.48 -7.93,2.35 -13.25,2.35 -7.78,0 -11.26,-3.22 -12.14,-10.26 l -1.11,-7.57 h 17.34"
         style="fill:#656263;fill-opacity:1;fill-rule:nonzero;stroke:none"
         transform="matrix(0.13333333,0,0,-0.13333333,0,546.66667)" />
      <path
         id="path26"
         d="m 2520.44,1978.48 h 12.49 v -86.78 h -12.49 v 86.78"
         style="fill:#656263;fill-opacity:1;fill-rule:nonzero;stroke:none"
         transform="matrix(0.13333333,0,0,-0.13333333,0,546.66667)" />
      <path
         id="path27"
         d="m 2573.44,1963.26 c 0.37,-3.84 0.6,-18.59 0.6,-25.14 v -46.42 h -11.99 v 86.78 h 16.45 l 25.88,-48.9 c 1.87,-3.72 9.28,-17.83 10.65,-21.53 h 0.75 c -0.38,5.31 -0.38,22.03 -0.38,26.11 v 44.32 h 11.75 v -86.78 h -16.1 l -26.47,49.88 c -1.86,3.73 -8.81,17.46 -10.4,21.68 h -0.74"
         style="fill:#656263;fill-opacity:1;fill-rule:nonzero;stroke:none"
         transform="matrix(0.13333333,0,0,-0.13333333,0,546.66667)" />
      <path
         id="path28"
         d="m 2655.29,1891.7 v 86.78 h 47.29 v -10.77 h -34.78 v -29.33 h 30.45 v -10.78 h -30.45 v -35.9 h -12.51"
         style="fill:#656263;fill-opacity:1;fill-rule:nonzero;stroke:none"
         transform="matrix(0.13333333,0,0,-0.13333333,0,546.66667)" />
      <path
         id="path29"
         d="m 2752.38,1901.34 c 13.01,0 21.17,8.04 21.17,33.31 0,25.51 -8.42,34.18 -21.79,34.18 -12.64,0 -21.15,-7.81 -21.15,-33.19 0,-25.62 8.51,-34.3 21.77,-34.3 z m -0.87,-10.89 c -20.9,0 -33.67,12.01 -33.67,44.2 0,31.81 13.87,45.06 34.8,45.06 20.8,0 33.79,-12.12 33.79,-44.18 0,-31.97 -13.86,-45.08 -34.92,-45.08"
         style="fill:#656263;fill-opacity:1;fill-rule:nonzero;stroke:none"
         transform="matrix(0.13333333,0,0,-0.13333333,0,546.66667)" />
      <path
         id="path30"
         d="m 2822.73,1937 h 10.02 c 11.39,0 17.71,4.71 17.71,15.6 0,10.9 -6.44,15.11 -18.21,15.11 h -9.52 z m 11.25,41.48 c 18.32,0 29.23,-7.17 29.23,-24.76 0,-14.49 -8.91,-22.41 -19.19,-23.78 v -0.49 c 3.71,-1.74 6.82,-4.7 10.78,-11.63 l 15.22,-26.12 h -14.98 l -15.35,27.85 c -2.72,4.96 -6.19,7.04 -11.9,7.04 h -5.06 v -34.89 h -12.39 v 86.78 h 23.64"
         style="fill:#656263;fill-opacity:1;fill-rule:nonzero;stroke:none"
         transform="matrix(0.13333333,0,0,-0.13333333,0,546.66667)" />
      <path
         id="path31"
         d="m 2932.45,1921.03 h 0.62 l 22.42,57.45 h 19.45 v -86.78 h -12.17 v 72.04 h -0.61 c -4.94,-12 -18.83,-48.15 -23.77,-60.18 h -12 l -23.66,60.18 h -0.75 v -72.04 h -11.75 v 86.78 h 19.81 l 22.41,-57.45"
         style="fill:#656263;fill-opacity:1;fill-rule:nonzero;stroke:none"
         transform="matrix(0.13333333,0,0,-0.13333333,0,546.66667)" />
      <path
         id="path32"
         d="m 3016.41,1926.23 h 26.51 l -7.43,24.15 c -1.5,5.32 -4.84,16.08 -5.57,19.43 h -0.52 c -0.6,-3.23 -3.95,-14.23 -5.31,-19.09 z m 22.66,52.25 27.74,-86.78 h -13.25 l -7.31,23.77 h -33.16 l -7.3,-23.77 h -12.76 l 27.47,86.78 h 18.57"
         style="fill:#656263;fill-opacity:1;fill-rule:nonzero;stroke:none"
         transform="matrix(0.13333333,0,0,-0.13333333,0,546.66667)" />
      <path
         id="path33"
         d="m 3091.47,1967.71 h -22.78 v 10.77 h 57.93 v -10.77 h -22.64 v -76.01 h -12.51 v 76.01"
         style="fill:#656263;fill-opacity:1;fill-rule:nonzero;stroke:none"
         transform="matrix(0.13333333,0,0,-0.13333333,0,546.66667)" />
      <path
         id="path34"
         d="m 3145.71,1978.48 h 12.52 v -86.78 h -12.52 v 86.78"
         style="fill:#656263;fill-opacity:1;fill-rule:nonzero;stroke:none"
         transform="matrix(0.13333333,0,0,-0.13333333,0,546.66667)" />
      <path
         id="path35"
         d="m 3217.66,1901.34 c 13,0 21.19,8.04 21.19,33.31 0,25.51 -8.43,34.18 -21.8,34.18 -12.64,0 -21.16,-7.81 -21.16,-33.19 0,-25.62 8.52,-34.3 21.77,-34.3 z m -0.86,-10.89 c -20.91,0 -33.67,12.01 -33.67,44.2 0,31.81 13.87,45.06 34.79,45.06 20.81,0 33.79,-12.12 33.79,-44.18 0,-31.97 -13.85,-45.08 -34.91,-45.08"
         style="fill:#656263;fill-opacity:1;fill-rule:nonzero;stroke:none"
         transform="matrix(0.13333333,0,0,-0.13333333,0,546.66667)" />
      <path
         id="path36"
         d="m 3287.02,1963.26 c 0.37,-3.84 0.61,-18.59 0.61,-25.14 v -46.42 h -12 v 86.78 h 16.47 l 25.88,-48.9 c 1.85,-3.72 9.28,-17.83 10.64,-21.53 h 0.76 c -0.39,5.31 -0.39,22.03 -0.39,26.11 v 44.32 h 11.77 v -86.78 h -16.11 l -26.48,49.88 c -1.86,3.73 -8.8,17.46 -10.41,21.68 h -0.74"
         style="fill:#656263;fill-opacity:1;fill-rule:nonzero;stroke:none"
         transform="matrix(0.13333333,0,0,-0.13333333,0,546.66667)" />
      <path
         id="path37"
         d="m 3419.53,1967.71 h -22.78 v 10.77 h 57.95 v -10.77 h -22.66 v -76.01 h -12.51 v 76.01"
         style="fill:#656263;fill-opacity:1;fill-rule:nonzero;stroke:none"
         transform="matrix(0.13333333,0,0,-0.13333333,0,546.66667)" />
      <path
         id="path38"
         d="m 3472.69,1891.7 v 86.78 h 47.52 v -10.77 h -35.17 v -26.62 h 30.72 v -10.78 h -30.72 v -27.85 h 36.8 v -10.76 h -49.15"
         style="fill:#656263;fill-opacity:1;fill-rule:nonzero;stroke:none"
         transform="matrix(0.13333333,0,0,-0.13333333,0,546.66667)" />
      <path
         id="path39"
         d="m 3576.93,1979.71 c 14.38,0 21.55,-5.57 24.28,-8.03 l -8.06,-9.41 c -3.34,3.22 -8.17,6.42 -17.21,6.42 -14.22,0 -22.52,-10.4 -22.52,-33.42 0,-21.77 8.04,-33.68 23.65,-33.68 8.55,0 13.49,2.84 16.47,5.83 l 6.92,-8.79 c -3.72,-3.96 -11.77,-8.18 -24.87,-8.18 -24.65,0 -34.93,17.46 -34.93,43.95 0,28.12 12.5,45.31 36.27,45.31"
         style="fill:#656263;fill-opacity:1;fill-rule:nonzero;stroke:none"
         transform="matrix(0.13333333,0,0,-0.13333333,0,546.66667)" />
      <path
         id="path40"
         d="m 3685.54,1978.48 v -86.78 h -12.49 v 38.38 h -39.03 v -38.38 h -12.38 v 86.78 h 12.38 v -37.64 h 39.03 v 37.64 h 12.49"
         style="fill:#656263;fill-opacity:1;fill-rule:nonzero;stroke:none"
         transform="matrix(0.13333333,0,0,-0.13333333,0,546.66667)" />
      <path
         id="path41"
         d="m 3725.06,1963.26 c 0.37,-3.84 0.6,-18.59 0.6,-25.14 v -46.42 h -11.99 v 86.78 h 16.47 l 25.88,-48.9 c 1.84,-3.72 9.27,-17.83 10.63,-21.53 h 0.74 c -0.36,5.31 -0.36,22.03 -0.36,26.11 v 44.32 h 11.75 v -86.78 h -16.08 l -26.5,49.88 c -1.85,3.73 -8.78,17.46 -10.4,21.68 h -0.74"
         style="fill:#656263;fill-opacity:1;fill-rule:nonzero;stroke:none"
         transform="matrix(0.13333333,0,0,-0.13333333,0,546.66667)" />
      <path
         id="path42"
         d="m 3837.27,1901.34 c 12.99,0 21.17,8.04 21.17,33.31 0,25.51 -8.42,34.18 -21.79,34.18 -12.65,0 -21.19,-7.81 -21.19,-33.19 0,-25.62 8.54,-34.3 21.81,-34.3 z m -0.86,-10.89 c -20.95,0 -33.69,12.01 -33.69,44.2 0,31.81 13.87,45.06 34.77,45.06 20.81,0 33.82,-12.12 33.82,-44.18 0,-31.97 -13.87,-45.08 -34.9,-45.08"
         style="fill:#656263;fill-opacity:1;fill-rule:nonzero;stroke:none"
         transform="matrix(0.13333333,0,0,-0.13333333,0,546.66667)" />
      <path
         id="path43"
         d="m 3907.62,1978.48 v -76.02 h 35.77 v -10.76 h -48.18 v 86.78 h 12.41"
         style="fill:#656263;fill-opacity:1;fill-rule:nonzero;stroke:none"
         transform="matrix(0.13333333,0,0,-0.13333333,0,546.66667)" />
      <path
         id="path44"
         d="m 3990.45,1901.34 c 13,0 21.17,8.04 21.17,33.31 0,25.51 -8.43,34.18 -21.79,34.18 -12.64,0 -21.18,-7.81 -21.18,-33.19 0,-25.62 8.54,-34.3 21.8,-34.3 z m -0.87,-10.89 c -20.93,0 -33.67,12.01 -33.67,44.2 0,31.81 13.87,45.06 34.79,45.06 20.8,0 33.79,-12.12 33.79,-44.18 0,-31.97 -13.86,-45.08 -34.91,-45.08"
         style="fill:#656263;fill-opacity:1;fill-rule:nonzero;stroke:none"
         transform="matrix(0.13333333,0,0,-0.13333333,0,546.66667)" />
      <path
         id="path45"
         d="m 4107.47,1971.54 -8.04,-9.14 c -3.72,3.46 -9.03,6.17 -17.46,6.17 -12.25,0 -25.01,-6.56 -25.01,-32.69 0,-24.77 8.66,-34.79 24.89,-34.79 4.7,0 10.28,0.88 13.25,2.75 v 32.18 h 12.5 v -37.78 c -5.81,-4.56 -14.24,-7.79 -28.35,-7.79 -23.14,0 -35.04,14.73 -35.04,44.2 0,31.33 16.97,45.06 38.38,45.06 15.22,0 22.16,-5.43 24.88,-8.17"
         style="fill:#656263;fill-opacity:1;fill-rule:nonzero;stroke:none"
         transform="matrix(0.13333333,0,0,-0.13333333,0,546.66667)" />
      <path
         id="path46"
         d="m 4189.44,1978.48 -28.97,-56.45 v -30.33 h -12.37 v 30.33 l -28.98,56.45 h 14.14 l 21.04,-43.7 h 0.5 l 21.16,43.7 h 13.48"
         style="fill:#656263;fill-opacity:1;fill-rule:nonzero;stroke:none"
         transform="matrix(0.13333333,0,0,-0.13333333,0,546.66667)" />
      <path
         id="path47"
         d="m 4255.77,1907.29 h 6.92 c 17.7,0 22.76,11.27 22.76,27.98 0,20.92 -9.14,27.6 -22.87,27.6 h -6.81 z m -18.83,71.19 h 26.98 c 28.24,0 40.97,-13.75 40.97,-41.48 0,-22.16 -8.78,-45.3 -40.72,-45.3 h -27.23 v 86.78"
         style="fill:#4eb2a5;fill-opacity:1;fill-rule:nonzero;stroke:none"
         transform="matrix(0.13333333,0,0,-0.13333333,0,546.66667)" />
      <path
         id="path48"
         d="m 4326.22,1891.7 v 86.78 h 51.38 v -15.61 h -32.57 v -19.32 h 28 v -15.58 h -28 v -20.68 h 34.05 v -15.59 h -52.86"
         style="fill:#4eb2a5;fill-opacity:1;fill-rule:nonzero;stroke:none"
         transform="matrix(0.13333333,0,0,-0.13333333,0,546.66667)" />
      <path
         id="path49"
         d="m 4420.46,1978.48 v -71.19 h 31.94 v -15.59 h -50.89 v 86.78 h 18.95"
         style="fill:#4eb2a5;fill-opacity:1;fill-rule:nonzero;stroke:none"
         transform="matrix(0.13333333,0,0,-0.13333333,0,546.66667)" />
      <path
         id="path50"
         d="m 4539.46,1978.48 v -86.78 h -18.93 v 35.53 h -31.57 v -35.53 h -18.95 v 86.78 h 18.95 v -35.67 h 31.57 v 35.67 h 18.93"
         style="fill:#4eb2a5;fill-opacity:1;fill-rule:nonzero;stroke:none"
         transform="matrix(0.13333333,0,0,-0.13333333,0,546.66667)" />
      <path
         id="path51"
         d="m 4566.1,1978.48 h 18.96 v -86.78 h -18.96 v 86.78"
         style="fill:#4eb2a5;fill-opacity:1;fill-rule:nonzero;stroke:none"
         transform="matrix(0.13333333,0,0,-0.13333333,0,546.66667)" />
      <path
         id="path52"
         d="m 1692.1,2167.62 h -68.19 v -288.84 h 68.19 v 288.84"
         style="fill:#918f90;fill-opacity:1;fill-rule:evenodd;stroke:none"
         transform="matrix(0.13333333,0,0,-0.13333333,0,546.66667)" />
      <path
         id="path53"
         d="m 1791.06,2167.62 h -68.15 v -288.84 h 68.15 v 288.84"
         style="fill:#7b7979;fill-opacity:1;fill-rule:evenodd;stroke:none"
         transform="matrix(0.13333333,0,0,-0.13333333,0,546.66667)" />
      <path
         id="path54"
         d="m 1890.06,2167.62 h -68.2 v -288.84 h 68.2 v 288.84"
         style="fill:#656263;fill-opacity:1;fill-rule:evenodd;stroke:none"
         transform="matrix(0.13333333,0,0,-0.13333333,0,546.66667)" />
      <path
         id="path55"
         d="m 2050.63,2167.62 h -129.82 v -288.84 h 68.2 v 227.09 h 61.62 v 61.75"
         style="fill:#4f4c4c;fill-opacity:1;fill-rule:evenodd;stroke:none"
         transform="matrix(0.13333333,0,0,-0.13333333,0,546.66667)" />
      <path
         id="path56"
         d="m 2081.33,2164.55 v -60.08 c 32.87,-12.09 53.37,-42.2 53.37,-81.29 v -0.85 c 0,-51.14 -35.11,-86.24 -87.08,-86.24 h -27.9 v -57.31 h 27.9 c 90.8,0 153.52,63.11 153.52,144.4 v 0.8 c 0,70.81 -47.54,127.17 -119.81,140.57"
         style="fill:#4eb2a5;fill-opacity:1;fill-rule:nonzero;stroke:none"
         transform="matrix(0.13333333,0,0,-0.13333333,0,546.66667)" />
    </g>
  </g>
</svg>
