<?xml version="1.0" encoding="UTF-8" standalone="no"?>
<!-- Created with Inkscape (http://www.inkscape.org/) -->

<svg
   version="1.1"
   id="svg1"
   width="217.87733"
   height="120.06934"
   viewBox="0 0 217.87734 120.06935"
   sodipodi:docname="iiitd_logo_login.svg"
   inkscape:version="1.4.2 (f4327f4, 2025-05-13)"
   xmlns:inkscape="http://www.inkscape.org/namespaces/inkscape"
   xmlns:sodipodi="http://sodipodi.sourceforge.net/DTD/sodipodi-0.dtd"
   xmlns="http://www.w3.org/2000/svg"
   xmlns:svg="http://www.w3.org/2000/svg">
  <defs
     id="defs1" />
  <sodipodi:namedview
     id="namedview1"
     pagecolor="#ffffff"
     bordercolor="#000000"
     borderopacity="0.25"
     inkscape:showpageshadow="2"
     inkscape:pageopacity="0.0"
     inkscape:pagecheckerboard="0"
     inkscape:deskcolor="#d1d1d1"
     inkscape:zoom="1.4140243"
     inkscape:cx="108.90902"
     inkscape:cy="59.758518"
     inkscape:window-width="1920"
     inkscape:window-height="991"
     inkscape:window-x="-9"
     inkscape:window-y="-9"
     inkscape:window-maximized="1"
     inkscape:current-layer="g1">
    <inkscape:page
       x="0"
       y="0"
       inkscape:label="1"
       id="page1"
       width="217.87733"
       height="120.06935"
       margin="0"
       bleed="0" />
  </sodipodi:namedview>
  <g
     id="g1"
     inkscape:groupmode="layer"
     inkscape:label="1"
     transform="translate(-296.39465,-213.29869)">
    <g
       id="group-R5">
      <path
         id="path2"
         d="m 2227.37,2029.03 h 11.7 v -81.29 h -11.7 v 81.29"
         style="fill:#656263;fill-opacity:1;fill-rule:nonzero;stroke:none"
         transform="matrix(0.13333333,0,0,-0.13333333,0,546.66667)" />
      <path
         id="path3"
         d="m 2277.01,2014.78 c 0.35,-3.6 0.58,-17.41 0.58,-23.55 v -43.49 h -11.24 v 81.29 h 15.42 l 24.24,-45.8 c 1.73,-3.47 8.69,-16.7 9.96,-20.17 h 0.7 c -0.35,4.98 -0.35,20.63 -0.35,24.46 v 41.51 h 11.01 v -81.29 h -15.07 l -24.81,46.74 c -1.74,3.48 -8.24,16.35 -9.74,20.3 h -0.7"
         style="fill:#656263;fill-opacity:1;fill-rule:nonzero;stroke:none"
         transform="matrix(0.13333333,0,0,-0.13333333,0,546.66667)" />
      <path
         id="path4"
         d="m 2365.28,1957.83 h 10.33 c 17.51,0 24.81,9.4 24.81,30.38 0,22.97 -9.28,30.74 -25.27,30.74 h -9.87 z m -11.59,71.2 h 22.37 c 25.06,0 36.41,-12.63 36.41,-39.54 0,-24.81 -10.08,-41.75 -36.41,-41.75 h -22.37 v 81.29"
         style="fill:#656263;fill-opacity:1;fill-rule:nonzero;stroke:none"
         transform="matrix(0.13333333,0,0,-0.13333333,0,546.66667)" />
      <path
         id="path5"
         d="m 2446.37,1990.19 h 9.38 c 10.69,0 16.58,4.41 16.58,14.6 0,10.22 -6.01,14.16 -17.03,14.16 h -8.93 z m 10.55,38.84 c 17.15,0 27.37,-6.72 27.37,-23.19 0,-13.56 -8.36,-20.99 -17.97,-22.27 v -0.45 c 3.47,-1.63 6.38,-4.41 10.09,-10.9 l 14.24,-24.48 h -14.02 l -14.37,26.1 c -2.55,4.64 -5.8,6.61 -11.14,6.61 h -4.75 v -32.71 h -11.59 v 81.29 h 22.14"
         style="fill:#656263;fill-opacity:1;fill-rule:nonzero;stroke:none"
         transform="matrix(0.13333333,0,0,-0.13333333,0,546.66667)" />
      <path
         id="path6"
         d="m 2522.12,1980.1 h 24.81 l -6.95,22.61 c -1.4,4.99 -4.52,15.07 -5.22,18.21 h -0.47 c -0.57,-3.02 -3.71,-13.33 -4.98,-17.86 z m 21.22,48.93 25.98,-81.29 h -12.42 l -6.83,22.27 h -31.08 l -6.84,-22.27 h -11.94 l 25.74,81.29 h 17.39"
         style="fill:#656263;fill-opacity:1;fill-rule:nonzero;stroke:none"
         transform="matrix(0.13333333,0,0,-0.13333333,0,546.66667)" />
      <path
         id="path7"
         d="m 2597.74,2018.83 v -29.91 h 10.57 c 12.99,0 17.27,5.68 17.27,15.06 0,10.56 -5.8,14.85 -17.15,14.85 z m 39.91,-13.33 c 0,-15.89 -8.93,-26.56 -29.11,-26.56 h -10.8 v -31.2 h -11.58 v 81.29 h 24.58 c 16.24,0 26.91,-6.72 26.91,-23.53"
         style="fill:#656263;fill-opacity:1;fill-rule:nonzero;stroke:none"
         transform="matrix(0.13333333,0,0,-0.13333333,0,546.66667)" />
      <path
         id="path8"
         d="m 2669.21,1990.19 h 9.39 c 10.67,0 16.59,4.41 16.59,14.6 0,10.22 -6.04,14.16 -17.06,14.16 h -8.92 z m 10.56,38.84 c 17.15,0 27.35,-6.72 27.35,-23.19 0,-13.56 -8.34,-20.99 -17.97,-22.27 v -0.45 c 3.49,-1.63 6.39,-4.41 10.1,-10.9 l 14.26,-24.48 h -14.03 l -14.39,26.1 c -2.54,4.64 -5.8,6.61 -11.13,6.61 h -4.75 v -32.71 h -11.6 v 81.29 h 22.16"
         style="fill:#656263;fill-opacity:1;fill-rule:nonzero;stroke:none"
         transform="matrix(0.13333333,0,0,-0.13333333,0,546.66667)" />
      <path
         id="path9"
         d="m 2744.95,1980.1 h 24.83 l -6.96,22.61 c -1.4,4.99 -4.52,15.07 -5.21,18.21 h -0.47 c -0.57,-3.02 -3.71,-13.33 -4.99,-17.86 z m 21.23,48.93 25.98,-81.29 h -12.4 l -6.85,22.27 h -31.08 l -6.84,-22.27 h -11.94 l 25.74,81.29 h 17.39"
         style="fill:#656263;fill-opacity:1;fill-rule:nonzero;stroke:none"
         transform="matrix(0.13333333,0,0,-0.13333333,0,546.66667)" />
      <path
         id="path10"
         d="m 2844.37,1968.73 c 0,16.82 -38.28,13.34 -38.28,38.97 0,12.76 10.79,22.5 26.1,22.5 10.42,0 18.07,-3.95 22.03,-7.66 l -7.19,-8.93 c -3.49,3.02 -8.35,6.15 -15.65,6.15 -8.47,0 -13.46,-4.75 -13.46,-11.25 0,-17.05 38.39,-13.69 38.39,-39.08 0,-12.17 -9.86,-22.85 -28.18,-22.85 -13.35,0 -22.16,5.11 -26.33,8.94 l 6.84,9.62 c 4.28,-3.6 10.9,-8.24 20.76,-8.24 9.85,0 14.97,5.22 14.97,11.83"
         style="fill:#656263;fill-opacity:1;fill-rule:nonzero;stroke:none"
         transform="matrix(0.13333333,0,0,-0.13333333,0,546.66667)" />
      <path
         id="path11"
         d="m 2886.48,2018.95 h -21.33 v 10.08 h 54.26 v -10.08 h -21.22 v -71.21 h -11.71 v 71.21"
         style="fill:#656263;fill-opacity:1;fill-rule:nonzero;stroke:none"
         transform="matrix(0.13333333,0,0,-0.13333333,0,546.66667)" />
      <path
         id="path12"
         d="m 2996.08,2029.03 v -81.29 h -11.7 v 35.95 h -36.54 v -35.95 h -11.6 v 81.29 h 11.6 v -35.25 h 36.54 v 35.25 h 11.7"
         style="fill:#656263;fill-opacity:1;fill-rule:nonzero;stroke:none"
         transform="matrix(0.13333333,0,0,-0.13333333,0,546.66667)" />
      <path
         id="path13"
         d="m 3034.95,1980.1 h 24.83 l -6.96,22.61 c -1.4,4.99 -4.52,15.07 -5.21,18.21 h -0.47 c -0.57,-3.02 -3.71,-13.33 -4.99,-17.86 z m 21.23,48.93 25.98,-81.29 h -12.4 l -6.85,22.27 h -31.08 l -6.84,-22.27 h -11.94 l 25.74,81.29 h 17.39"
         style="fill:#656263;fill-opacity:1;fill-rule:nonzero;stroke:none"
         transform="matrix(0.13333333,0,0,-0.13333333,0,546.66667)" />
      <path
         id="path14"
         d="m 3135.65,2029.03 h 11.71 v -81.29 h -11.71 v 81.29"
         style="fill:#656263;fill-opacity:1;fill-rule:nonzero;stroke:none"
         transform="matrix(0.13333333,0,0,-0.13333333,0,546.66667)" />
      <path
         id="path15"
         d="m 3185.3,2014.78 c 0.34,-3.6 0.57,-17.41 0.57,-23.55 v -43.49 h -11.24 v 81.29 h 15.42 l 24.24,-45.8 c 1.74,-3.47 8.69,-16.7 9.96,-20.17 h 0.7 c -0.35,4.98 -0.35,20.63 -0.35,24.46 v 41.51 h 11.02 v -81.29 h -15.08 l -24.81,46.74 c -1.74,3.48 -8.23,16.35 -9.74,20.3 h -0.69"
         style="fill:#656263;fill-opacity:1;fill-rule:nonzero;stroke:none"
         transform="matrix(0.13333333,0,0,-0.13333333,0,546.66667)" />
      <path
         id="path16"
         d="m 3297.35,1968.73 c 0,16.82 -38.28,13.34 -38.28,38.97 0,12.76 10.79,22.5 26.1,22.5 10.44,0 18.09,-3.95 22.04,-7.66 l -7.19,-8.93 c -3.49,3.02 -8.35,6.15 -15.65,6.15 -8.46,0 -13.46,-4.75 -13.46,-11.25 0,-17.05 38.38,-13.69 38.38,-39.08 0,-12.17 -9.87,-22.85 -28.19,-22.85 -13.33,0 -22.14,5.11 -26.32,8.94 l 6.85,9.62 c 4.29,-3.6 10.9,-8.24 20.76,-8.24 9.86,0 14.96,5.22 14.96,11.83"
         style="fill:#656263;fill-opacity:1;fill-rule:nonzero;stroke:none"
         transform="matrix(0.13333333,0,0,-0.13333333,0,546.66667)" />
      <path
         id="path17"
         d="m 3339.46,2018.95 h -21.33 v 10.08 h 54.26 v -10.08 h -21.22 v -71.21 h -11.71 v 71.21"
         style="fill:#656263;fill-opacity:1;fill-rule:nonzero;stroke:none"
         transform="matrix(0.13333333,0,0,-0.13333333,0,546.66667)" />
      <path
         id="path18"
         d="m 3390.26,2029.03 h 11.72 v -81.29 h -11.72 v 81.29"
         style="fill:#656263;fill-opacity:1;fill-rule:nonzero;stroke:none"
         transform="matrix(0.13333333,0,0,-0.13333333,0,546.66667)" />
      <path
         id="path19"
         d="m 3441.06,2018.95 h -21.32 v 10.08 H 3474 v -10.08 h -21.22 v -71.21 h -11.72 v 71.21"
         style="fill:#656263;fill-opacity:1;fill-rule:nonzero;stroke:none"
         transform="matrix(0.13333333,0,0,-0.13333333,0,546.66667)" />
      <path
         id="path20"
         d="m 3537.92,1975.58 v 53.45 h 11.72 v -51.95 c 0,-20.99 -12.4,-30.5 -30.63,-30.5 -19,0 -28.51,11.13 -28.51,28.42 v 54.03 h 11.6 v -52.07 c 0,-13.68 6.72,-20.17 18.44,-20.17 10.78,0 17.38,5.22 17.38,18.79"
         style="fill:#656263;fill-opacity:1;fill-rule:nonzero;stroke:none"
         transform="matrix(0.13333333,0,0,-0.13333333,0,546.66667)" />
      <path
         id="path21"
         d="m 3587.47,2018.95 h -21.33 v 10.08 h 54.26 v -10.08 h -21.22 v -71.21 h -11.71 v 71.21"
         style="fill:#656263;fill-opacity:1;fill-rule:nonzero;stroke:none"
         transform="matrix(0.13333333,0,0,-0.13333333,0,546.66667)" />
      <path
         id="path22"
         d="m 3637.24,1947.74 v 81.29 h 44.53 v -10.08 h -32.94 v -24.94 h 28.76 v -10.08 h -28.76 v -26.1 h 34.44 v -10.09 h -46.03"
         style="fill:#656263;fill-opacity:1;fill-rule:nonzero;stroke:none"
         transform="matrix(0.13333333,0,0,-0.13333333,0,546.66667)" />
      <path
         id="path23"
         d="m 3760.42,1955.86 c 15.54,0 18.79,19.6 18.79,32.13 0,10.66 -5.11,15.3 -13.58,15.3 -15.42,0 -18.55,-19.48 -18.55,-32 0,-10.56 4.88,-15.43 13.34,-15.43 z m -0.47,-9.4 c -16.82,0 -24.7,9.63 -24.7,24.94 0,22.73 9.06,41.29 30.97,41.29 16.93,0 24.7,-9.28 24.7,-24.82 0,-22.62 -9.05,-41.41 -30.97,-41.41"
         style="fill:#656263;fill-opacity:1;fill-rule:nonzero;stroke:none"
         transform="matrix(0.13333333,0,0,-0.13333333,0,546.66667)" />
      <path
         id="path24"
         d="m 3844.64,2011.52 -1.41,-9.73 H 3827 l -10.66,-77.59 h -11.13 l 10.78,77.59 h -10.67 l 1.16,7.76 10.91,1.97 1.15,8.47 c 1.63,12.18 10.43,18.2 22.73,18.2 7.78,0 13.22,-1.62 15.77,-2.89 l -3.83,-9.27 c -2.78,1.38 -7.42,2.19 -12.4,2.19 -7.3,0 -10.56,-3.01 -11.37,-9.62 l -1.04,-7.08 h 16.24"
         style="fill:#656263;fill-opacity:1;fill-rule:nonzero;stroke:none"
         transform="matrix(0.13333333,0,0,-0.13333333,0,546.66667)" />
      <path
         id="path25"
         d="m 2227.37,1855.03 h 11.7 v -81.29 h -11.7 v 81.29"
         style="fill:#656263;fill-opacity:1;fill-rule:nonzero;stroke:none"
         transform="matrix(0.13333333,0,0,-0.13333333,0,546.66667)" />
      <path
         id="path26"
         d="m 2277.01,1840.77 c 0.35,-3.59 0.58,-17.4 0.58,-23.54 v -43.49 h -11.24 v 81.29 h 15.42 l 24.24,-45.8 c 1.73,-3.48 8.69,-16.7 9.96,-20.18 h 0.7 c -0.35,4.98 -0.35,20.64 -0.35,24.47 v 41.51 h 11.01 v -81.29 h -15.07 l -24.81,46.74 c -1.74,3.48 -8.24,16.35 -9.74,20.29 h -0.7"
         style="fill:#656263;fill-opacity:1;fill-rule:nonzero;stroke:none"
         transform="matrix(0.13333333,0,0,-0.13333333,0,546.66667)" />
      <path
         id="path27"
         d="m 2353.69,1773.74 v 81.29 h 44.3 v -10.09 h -32.59 v -27.48 h 28.53 v -10.09 h -28.53 v -33.63 h -11.71"
         style="fill:#656263;fill-opacity:1;fill-rule:nonzero;stroke:none"
         transform="matrix(0.13333333,0,0,-0.13333333,0,546.66667)" />
      <path
         id="path28"
         d="m 2444.63,1782.78 c 12.18,0 19.83,7.54 19.83,31.2 0,23.89 -7.89,32.01 -20.41,32.01 -11.83,0 -19.83,-7.31 -19.83,-31.08 0,-24 8,-32.13 20.41,-32.13 z m -0.81,-10.2 c -19.6,0 -31.54,11.25 -31.54,41.4 0,29.8 12.98,42.21 32.58,42.21 19.49,0 31.66,-11.37 31.66,-41.4 0,-29.92 -12.98,-42.21 -32.7,-42.21"
         style="fill:#656263;fill-opacity:1;fill-rule:nonzero;stroke:none"
         transform="matrix(0.13333333,0,0,-0.13333333,0,546.66667)" />
      <path
         id="path29"
         d="m 2510.52,1816.18 h 9.39 c 10.67,0 16.58,4.42 16.58,14.61 0,10.22 -6.02,14.15 -17.05,14.15 h -8.92 z m 10.54,38.85 c 17.17,0 27.38,-6.72 27.38,-23.19 0,-13.57 -8.35,-20.99 -17.97,-22.27 v -0.46 c 3.47,-1.62 6.38,-4.4 10.09,-10.9 l 14.25,-24.47 h -14.02 l -14.38,26.09 c -2.55,4.64 -5.8,6.62 -11.15,6.62 h -4.74 v -32.71 h -11.59 v 81.29 h 22.13"
         style="fill:#656263;fill-opacity:1;fill-rule:nonzero;stroke:none"
         transform="matrix(0.13333333,0,0,-0.13333333,0,546.66667)" />
      <path
         id="path30"
         d="m 2613.29,1801.22 h 0.58 l 20.99,53.81 h 18.22 v -81.29 h -11.39 v 67.49 h -0.57 c -4.64,-11.25 -17.63,-45.11 -22.26,-56.36 h -11.25 l -22.15,56.36 h -0.69 v -67.49 h -11.02 v 81.29 h 18.54 l 21,-53.81"
         style="fill:#656263;fill-opacity:1;fill-rule:nonzero;stroke:none"
         transform="matrix(0.13333333,0,0,-0.13333333,0,546.66667)" />
      <path
         id="path31"
         d="m 2691.94,1806.09 h 24.82 l -6.96,22.62 c -1.39,4.98 -4.52,15.07 -5.22,18.2 h -0.47 c -0.57,-3.01 -3.71,-13.33 -4.98,-17.86 z m 21.22,48.94 25.98,-81.29 h -12.41 l -6.84,22.27 h -31.07 l -6.84,-22.27 h -11.95 l 25.74,81.29 h 17.39"
         style="fill:#656263;fill-opacity:1;fill-rule:nonzero;stroke:none"
         transform="matrix(0.13333333,0,0,-0.13333333,0,546.66667)" />
      <path
         id="path32"
         d="m 2762.25,1844.94 h -21.34 v 10.09 h 54.26 v -10.09 h -21.21 v -71.2 h -11.71 v 71.2"
         style="fill:#656263;fill-opacity:1;fill-rule:nonzero;stroke:none"
         transform="matrix(0.13333333,0,0,-0.13333333,0,546.66667)" />
      <path
         id="path33"
         d="m 2813.06,1855.03 h 11.72 v -81.29 h -11.72 v 81.29"
         style="fill:#656263;fill-opacity:1;fill-rule:nonzero;stroke:none"
         transform="matrix(0.13333333,0,0,-0.13333333,0,546.66667)" />
      <path
         id="path34"
         d="m 2880.44,1782.78 c 12.19,0 19.84,7.54 19.84,31.2 0,23.89 -7.89,32.01 -20.41,32.01 -11.83,0 -19.83,-7.31 -19.83,-31.08 0,-24 8,-32.13 20.4,-32.13 z m -0.8,-10.2 c -19.6,0 -31.54,11.25 -31.54,41.4 0,29.8 12.98,42.21 32.58,42.21 19.49,0 31.65,-11.37 31.65,-41.4 0,-29.92 -12.97,-42.21 -32.69,-42.21"
         style="fill:#656263;fill-opacity:1;fill-rule:nonzero;stroke:none"
         transform="matrix(0.13333333,0,0,-0.13333333,0,546.66667)" />
      <path
         id="path35"
         d="m 2945.4,1840.77 c 0.35,-3.59 0.59,-17.4 0.59,-23.54 v -43.49 h -11.25 v 81.29 h 15.43 l 24.23,-45.8 c 1.74,-3.48 8.7,-16.7 9.98,-20.18 h 0.69 c -0.34,4.98 -0.34,20.64 -0.34,24.47 v 41.51 h 11.01 v -81.29 h -15.09 l -24.8,46.74 c -1.74,3.48 -8.24,16.35 -9.75,20.29 h -0.7"
         style="fill:#656263;fill-opacity:1;fill-rule:nonzero;stroke:none"
         transform="matrix(0.13333333,0,0,-0.13333333,0,546.66667)" />
      <path
         id="path36"
         d="m 3069.53,1844.94 h -21.34 v 10.09 h 54.27 v -10.09 h -21.22 v -71.2 h -11.71 v 71.2"
         style="fill:#656263;fill-opacity:1;fill-rule:nonzero;stroke:none"
         transform="matrix(0.13333333,0,0,-0.13333333,0,546.66667)" />
      <path
         id="path37"
         d="m 3119.31,1773.74 v 81.29 h 44.53 v -10.09 h -32.95 v -24.93 h 28.77 v -10.09 h -28.77 v -26.09 h 34.45 v -10.09 h -46.03"
         style="fill:#656263;fill-opacity:1;fill-rule:nonzero;stroke:none"
         transform="matrix(0.13333333,0,0,-0.13333333,0,546.66667)" />
      <path
         id="path38"
         d="m 3216.96,1856.19 c 13.46,0 20.18,-5.21 22.74,-7.54 l -7.54,-8.81 c -3.15,3.02 -7.66,6.03 -16.13,6.03 -13.32,0 -21.1,-9.74 -21.1,-31.31 0,-20.41 7.54,-31.54 22.15,-31.54 8.01,0 12.64,2.66 15.43,5.45 l 6.48,-8.24 c -3.47,-3.71 -11.01,-7.65 -23.3,-7.65 -23.08,0 -32.7,16.36 -32.7,41.17 0,26.32 11.71,42.44 33.97,42.44"
         style="fill:#656263;fill-opacity:1;fill-rule:nonzero;stroke:none"
         transform="matrix(0.13333333,0,0,-0.13333333,0,546.66667)" />
      <path
         id="path39"
         d="m 3318.68,1855.03 v -81.29 h -11.7 v 35.95 h -36.54 v -35.95 h -11.6 v 81.29 h 11.6 v -35.25 h 36.54 v 35.25 h 11.7"
         style="fill:#656263;fill-opacity:1;fill-rule:nonzero;stroke:none"
         transform="matrix(0.13333333,0,0,-0.13333333,0,546.66667)" />
      <path
         id="path40"
         d="m 3355.7,1840.77 c 0.35,-3.59 0.58,-17.4 0.58,-23.54 v -43.49 h -11.24 v 81.29 h 15.42 l 24.24,-45.8 c 1.74,-3.48 8.69,-16.7 9.97,-20.18 h 0.69 c -0.34,4.98 -0.34,20.64 -0.34,24.47 v 41.51 h 11.01 v -81.29 h -15.07 l -24.82,46.74 c -1.74,3.48 -8.23,16.35 -9.74,20.29 h -0.7"
         style="fill:#656263;fill-opacity:1;fill-rule:nonzero;stroke:none"
         transform="matrix(0.13333333,0,0,-0.13333333,0,546.66667)" />
      <path
         id="path41"
         d="m 3460.79,1782.78 c 12.19,0 19.84,7.54 19.84,31.2 0,23.89 -7.89,32.01 -20.41,32.01 -11.83,0 -19.83,-7.31 -19.83,-31.08 0,-24 8,-32.13 20.4,-32.13 z m -0.8,-10.2 c -19.6,0 -31.54,11.25 -31.54,41.4 0,29.8 12.99,42.21 32.59,42.21 19.48,0 31.66,-11.37 31.66,-41.4 0,-29.92 -12.99,-42.21 -32.71,-42.21"
         style="fill:#656263;fill-opacity:1;fill-rule:nonzero;stroke:none"
         transform="matrix(0.13333333,0,0,-0.13333333,0,546.66667)" />
      <path
         id="path42"
         d="m 3526.69,1855.03 v -71.2 h 33.52 v -10.09 h -45.12 v 81.29 h 11.6"
         style="fill:#656263;fill-opacity:1;fill-rule:nonzero;stroke:none"
         transform="matrix(0.13333333,0,0,-0.13333333,0,546.66667)" />
      <path
         id="path43"
         d="m 3604.29,1782.78 c 12.17,0 19.82,7.54 19.82,31.2 0,23.89 -7.88,32.01 -20.4,32.01 -11.84,0 -19.83,-7.31 -19.83,-31.08 0,-24 7.99,-32.13 20.41,-32.13 z m -0.81,-10.2 c -19.6,0 -31.55,11.25 -31.55,41.4 0,29.8 12.98,42.21 32.59,42.21 19.48,0 31.66,-11.37 31.66,-41.4 0,-29.92 -12.99,-42.21 -32.7,-42.21"
         style="fill:#656263;fill-opacity:1;fill-rule:nonzero;stroke:none"
         transform="matrix(0.13333333,0,0,-0.13333333,0,546.66667)" />
      <path
         id="path44"
         d="m 3713.9,1848.54 -7.53,-8.58 c -3.48,3.24 -8.47,5.79 -16.35,5.79 -11.48,0 -23.43,-6.14 -23.43,-30.61 0,-23.2 8.11,-32.59 23.31,-32.59 4.41,0 9.62,0.82 12.41,2.56 v 30.14 h 11.7 v -35.37 c -5.44,-4.28 -13.33,-7.3 -26.54,-7.3 -21.69,0 -32.83,13.8 -32.83,41.4 0,29.34 15.9,42.21 35.96,42.21 14.26,0 20.76,-5.1 23.3,-7.65"
         style="fill:#656263;fill-opacity:1;fill-rule:nonzero;stroke:none"
         transform="matrix(0.13333333,0,0,-0.13333333,0,546.66667)" />
      <path
         id="path45"
         d="m 3790.69,1855.03 -27.15,-52.88 v -28.41 h -11.58 v 28.41 l -27.15,52.88 h 13.24 l 19.71,-40.94 h 0.47 l 19.83,40.94 h 12.63"
         style="fill:#656263;fill-opacity:1;fill-rule:nonzero;stroke:none"
         transform="matrix(0.13333333,0,0,-0.13333333,0,546.66667)" />
      <path
         id="path46"
         d="m 2242.8,1614.35 h 6.49 c 16.58,0 21.33,10.55 21.33,26.21 0,19.6 -8.58,25.86 -21.45,25.86 h -6.37 z m -17.63,66.68 h 25.27 c 26.44,0 38.39,-12.88 38.39,-38.85 0,-20.75 -8.23,-42.44 -38.16,-42.44 h -25.5 v 81.29"
         style="fill:#4eb2a5;fill-opacity:1;fill-rule:nonzero;stroke:none"
         transform="matrix(0.13333333,0,0,-0.13333333,0,546.66667)" />
      <path
         id="path47"
         d="m 2308.8,1599.74 v 81.29 h 48.12 v -14.61 h -30.5 v -18.09 h 26.22 v -14.62 h -26.22 v -19.36 h 31.89 v -14.61 h -49.51"
         style="fill:#4eb2a5;fill-opacity:1;fill-rule:nonzero;stroke:none"
         transform="matrix(0.13333333,0,0,-0.13333333,0,546.66667)" />
      <path
         id="path48"
         d="m 2397.07,1681.03 v -66.68 h 29.91 v -14.61 h -47.65 v 81.29 h 17.74"
         style="fill:#4eb2a5;fill-opacity:1;fill-rule:nonzero;stroke:none"
         transform="matrix(0.13333333,0,0,-0.13333333,0,546.66667)" />
      <path
         id="path49"
         d="m 2508.54,1681.03 v -81.29 h -17.75 v 33.28 h -29.57 v -33.28 h -17.74 v 81.29 h 17.74 v -33.4 h 29.57 v 33.4 h 17.75"
         style="fill:#4eb2a5;fill-opacity:1;fill-rule:nonzero;stroke:none"
         transform="matrix(0.13333333,0,0,-0.13333333,0,546.66667)" />
      <path
         id="path50"
         d="m 2533.49,1681.03 h 17.75 v -81.29 h -17.75 v 81.29"
         style="fill:#4eb2a5;fill-opacity:1;fill-rule:nonzero;stroke:none"
         transform="matrix(0.13333333,0,0,-0.13333333,0,546.66667)" />
      <path
         id="path51"
         d="m 2288.57,2500.26 h -65.61 v -277.88 h 65.61 v 277.88"
         style="fill:#918f90;fill-opacity:1;fill-rule:evenodd;stroke:none"
         transform="matrix(0.13333333,0,0,-0.13333333,0,546.66667)" />
      <path
         id="path52"
         d="m 2383.78,2500.26 h -65.58 v -277.88 h 65.58 v 277.88"
         style="fill:#7b7979;fill-opacity:1;fill-rule:evenodd;stroke:none"
         transform="matrix(0.13333333,0,0,-0.13333333,0,546.66667)" />
      <path
         id="path53"
         d="m 2479.01,2500.26 h -65.61 v -277.88 h 65.61 v 277.88"
         style="fill:#656263;fill-opacity:1;fill-rule:evenodd;stroke:none"
         transform="matrix(0.13333333,0,0,-0.13333333,0,546.66667)" />
      <path
         id="path54"
         d="M 2633.49,2500.26 H 2508.6 v -277.88 h 65.62 v 218.47 h 59.27 v 59.41"
         style="fill:#4f4c4c;fill-opacity:1;fill-rule:evenodd;stroke:none"
         transform="matrix(0.13333333,0,0,-0.13333333,0,546.66667)" />
      <path
         id="path55"
         d="m 2663.03,2497.31 v -57.79 c 31.63,-11.64 51.35,-40.62 51.35,-78.22 v -0.81 c 0,-49.21 -33.77,-82.98 -83.77,-82.98 h -26.86 v -55.13 h 26.86 c 87.35,0 147.68,60.72 147.68,138.92 v 0.78 c 0,68.11 -45.73,122.35 -115.26,135.23"
         style="fill:#4eb2a5;fill-opacity:1;fill-rule:nonzero;stroke:none"
         transform="matrix(0.13333333,0,0,-0.13333333,0,546.66667)" />
    </g>
  </g>
</svg>
